<svg version="1.0" xmlns="http://www.w3.org/2000/svg"
 width="300" height="300" viewBox="0 0 300 300"
 preserveAspectRatio="xMidYMid meet">
<rect width="300" height="300" fill="oklch(0.8593 0.097 340.78)"/>
<g transform="translate(0,300) scale(0.1,-0.1)"
fill="#000000" stroke="none">
<path d="M2490 2613 c0 -46 -23 -140 -49 -199 l-19 -43 -64 34 c-105 56 -167
69 -308 69 -88 0 -144 -5 -190 -18 -89 -24 -219 -86 -297 -142 -60 -43 -68
-46 -87 -34 -208 133 -336 179 -523 187 -205 10 -367 -49 -498 -182 -108 -109
-169 -229 -201 -393 -19 -99 -18 -294 2 -390 l16 -77 -37 -31 c-20 -18 -52
-35 -71 -39 -41 -7 -41 -25 0 -36 67 -18 148 -117 171 -207 15 -59 31 -64 39
-11 4 23 9 46 13 51 6 11 43 -40 43 -60 0 -21 -132 -111 -183 -124 -57 -14
-56 -30 2 -40 140 -24 263 -171 322 -383 12 -44 23 -86 25 -94 3 -10 8 -11 18
-2 8 7 15 41 18 90 4 66 11 91 44 156 21 44 44 80 49 81 6 2 154 -112 330
-252 176 -140 339 -264 363 -276 102 -49 190 -8 504 233 246 189 370 299 484
433 169 196 276 380 318 546 l23 92 12 -47 c10 -41 31 -55 31 -20 0 8 10 40
21 71 26 70 101 151 147 160 36 7 44 34 10 34 -63 1 -146 98 -171 200 -18 69
-34 74 -43 15 -7 -53 -15 -49 -33 14 -12 43 -12 45 16 67 15 13 61 41 102 61
l74 38 -63 18 c-107 31 -169 82 -235 192 -38 64 -72 162 -83 241 -5 35 -12 50
-25 52 -14 3 -17 -4 -17 -35z m85 -230 c43 -93 130 -183 211 -220 l57 -26 -49
-25 c-110 -56 -232 -219 -258 -344 l-13 -63 -13 55 c-38 161 -161 308 -296
355 l-35 12 53 26 c132 65 233 213 274 402 6 27 8 23 20 -34 7 -36 29 -98 49
-138z m-402 62 c73 -13 237 -79 237 -95 0 -4 -30 -39 -66 -78 -46 -51 -84 -81
-130 -103 -73 -36 -83 -46 -57 -55 65 -21 151 -73 198 -119 69 -67 129 -186
146 -291 16 -90 34 -97 42 -16 2 31 14 84 26 117 24 67 110 200 122 188 4 -4
14 -30 22 -58 14 -48 13 -51 -11 -88 -24 -36 -86 -86 -124 -100 -29 -10 -21
-23 27 -41 44 -17 125 -95 125 -121 0 -7 -11 -56 -25 -110 -45 -178 -157 -369
-334 -570 -103 -116 -226 -225 -454 -400 -274 -210 -373 -266 -449 -251 -45 8
-100 48 -442 321 l-289 229 49 44 c27 24 82 59 123 78 55 26 71 38 60 45 -8 5
-21 9 -31 9 -26 0 -139 68 -181 108 -78 76 -132 190 -145 307 -5 45 -11 61
-24 63 -14 3 -17 -6 -20 -50 -3 -50 -4 -53 -28 -50 -70 9 -137 88 -163 192 -8
30 -18 55 -23 55 -4 0 -12 -17 -16 -38 -4 -20 -18 -56 -30 -80 l-22 -42 -8 40
c-16 83 -21 281 -9 364 36 244 165 438 352 530 96 47 193 71 296 71 171 0 382
-71 539 -182 l42 -30 63 47 c192 141 405 197 612 160z m672 -642 c19 -22 48
-46 65 -53 l31 -13 -29 -17 c-43 -27 -100 -98 -120 -152 l-18 -49 -13 43 c-20
68 -76 134 -134 159 l-27 11 43 28 c38 24 107 102 107 121 0 4 5 20 11 36 l11
28 19 -51 c10 -28 35 -69 54 -91z m-2426 -394 c17 -20 47 -44 67 -54 l36 -17
-28 -17 c-46 -28 -100 -94 -119 -146 l-19 -47 -22 49 c-27 61 -83 126 -125
144 l-31 12 34 18 c47 24 100 85 124 141 l19 47 17 -47 c10 -26 31 -63 47 -83z
m191 -113 c31 -126 140 -258 253 -307 31 -13 57 -26 56 -29 0 -3 -22 -16 -50
-28 -121 -57 -244 -231 -256 -362 l-6 -63 -29 88 c-32 100 -70 170 -123 233
-45 52 -114 100 -155 108 -16 4 -30 9 -30 13 1 3 24 17 53 31 109 52 234 224
253 345 3 25 9 43 12 40 3 -3 13 -34 22 -69z m-66 -8 c-18 -55 -77 -161 -91
-165 -6 -2 -21 12 -33 32 l-22 36 29 37 c31 38 108 102 123 102 5 0 2 -19 -6
-42z"/>
<path d="M1785 1999 c-27 -5 -183 -11 -345 -14 -162 -3 -297 -9 -301 -13 -3
-4 -12 -97 -18 -206 -7 -109 -19 -258 -28 -330 -29 -241 -23 -270 45 -198 72
76 134 104 232 103 70 0 145 -29 186 -72 23 -24 28 -38 29 -86 2 -49 -2 -64
-26 -100 -34 -49 -37 -86 -8 -107 12 -8 18 -19 15 -25 -4 -6 -3 -26 3 -45 9
-33 7 -36 -29 -61 -116 -80 -258 -71 -374 25 -51 43 -65 47 -84 28 -33 -33 12
-132 97 -211 172 -161 437 -155 601 14 239 246 178 670 -118 816 -73 36 -80
38 -176 38 l-101 0 3 78 4 77 59 0 c101 0 352 20 387 31 l33 11 -3 126 c-3
142 1 135 -83 121z m59 -71 c3 -29 6 -77 6 -106 0 -46 -3 -54 -24 -62 -21 -8
-136 -15 -378 -24 -37 -1 -69 -4 -71 -7 -3 -2 -7 -47 -10 -99 l-5 -95 107 0
c104 0 109 -1 183 -38 238 -117 326 -439 188 -682 -32 -55 -116 -140 -171
-173 -46 -27 -140 -52 -200 -52 -106 0 -242 66 -312 152 -90 111 -90 188 -1
109 58 -51 137 -81 212 -81 75 0 120 13 179 53 l48 32 0 62 c0 55 -3 63 -22
72 -31 14 -29 34 7 86 25 37 30 53 30 104 0 56 -3 64 -36 100 -70 78 -182 107
-289 76 -66 -19 -133 -61 -163 -102 -27 -37 -36 -25 -24 34 15 68 42 352 50
527 l7 148 210 0 c116 -1 253 3 305 7 52 4 111 9 131 9 l36 2 7 -52z"/>
</g>
</svg>
